<?xml version="1.0" encoding="UTF-8"?>
<svg width="100px" height="100px" viewBox="0 0 100 100" version="1.1" xmlns="http://www.w3.org/2000/svg" xmlns:xlink="http://www.w3.org/1999/xlink">
    <!-- Generator: Sketch 58 (84663) - https://sketch.com -->
    <title>Chu Dat Tech</title>
    <desc>Created with Sketch.</desc>
    <g id="Chu-Dat-Tech" stroke="none" stroke-width="1" fill="none" fill-rule="evenodd">
        <path d="M49.5343299,8.60449219 L86.095834,24.1176471 C93.514017,44.0598895 94.1041426,59.746164 87.8662109,71.1764706 C82.1193484,81.7069483 69.5444285,87.9814581 50.1414513,90 C30.3315831,85.7697993 17.8555409,79.4952895 12.7133245,71.1764706 C7.57110817,62.8576517 7.57110817,47.1713771 12.7133245,24.1176471 L49.5343299,8.60449219 Z" id="Path-4" fill="#1F3044"></path>
        <path d="M50,5 L90,20.8823529 C94.998097,48.2383166 94.998097,65.8853754 90,73.8235294 C85.001903,81.7616834 71.6685697,88.8205069 50,95 C27.9542268,88.221419 14.6208934,81.1625954 10,73.8235294 C5.37910657,66.4844634 5.37910657,48.8374046 10,20.8823529 L10,20.8823529 L50,5 Z M49.4045793,10 L12.7133245,24.1176471 C8.47466507,48.9665818 8.47466507,64.6528563 12.7133245,71.1764706 C16.951984,77.7000848 29.1824022,83.9745946 49.4045793,90 C69.2807545,84.5071173 81.5111728,78.2326075 86.095834,71.1764706 C90.6804952,64.1203337 90.6804952,48.4340592 86.095834,24.1176471 L49.4045793,10 Z" id="Combined-Shape" fill="#646C79"></path>
        <polygon id="Path" fill="#FB9039" points="15.7275391 67.1469727 15.7275391 32.5498047 26.1025391 32.5498047 32.293457 59.4580078 38.6464844 32.5498047 48.7373047 32.5498047 48.7373047 67.1469727 42.4458008 67.1469727 42.4458008 38.21875 35.8618164 67.1469727 28.9213867 67.1469727 22.4116211 38.21875 22.4116211 67.1469727"></polygon>
        <path d="M77.8999023,44.1918945 L85.0195313,44.1918945 C83.0546875,35.8556315 78.2644857,31.6875 70.6489258,31.6875 C59.2255859,31.6875 54.4081585,41.1987797 54.1484375,50 C53.8887165,58.8012203 58.2148437,67.7753906 69.5839844,67.7753906 C77.1634115,67.7753906 82.3085938,63.6946615 85.0195313,55.5332031 L77.8999023,55.5332031 C77.0909831,59.5192057 74.6739909,61.512207 70.6489258,61.512207 C64.6113281,61.512207 61.5634766,55.954033 61.5634766,50 C61.5634766,44.045967 65.105957,38.043457 70.6489258,38.043457 C74.3442383,38.043457 76.7612305,40.0929362 77.8999023,44.1918945 Z" id="Path-3" fill="#FB9039"></path>
    </g>
</svg>